<svg xmlns="http://www.w3.org/2000/svg" viewBox="50 0 95 200" x="0px" y="0px"
     fill="#ff4e30" stroke="#ff4e30" stroke-width="4" stroke-linejoin="round"
     stroke-linecap="round">
    <title>Beer</title>
    <path d="M60.81,43.78A66.46,66.46,0,0,0,69,32.23a.39.39,0,0,0,0-.48c9.87-.67,19.61-2.14,29.52-2.45A176.66,176.66,0,0,1,129.79,31a.48.48,0,0,0,.57.09l.08,0a.74.74,0,0,0,.47-.35,3.07,3.07,0,0,0,.68-2,4,4,0,0,0-1-2.64.46.46,0,0,0-.51-.14.55.55,0,0,0-.25-.63c-3.12-2.07-6.94-2-10.56-2.13-5.1-.25-10.2-.36-15.3-.4a14,14,0,0,1,7.63-9c2.41-1,6-1.53,6.75,1.87.5,2.26-.7,4.4-1.58,6.38-.19.41.39.6.66.37C121.6,19.05,121,11,114.56,11.56c-5.94.5-10.31,5.68-11.36,11.25l-2.59,0C90.17,22.74,78.2,21.35,68.18,25a.54.54,0,0,0-.55.29c-.76,1.56-1.42,5.29.44,6.35a.47.47,0,0,0,.16,0,.25.25,0,0,0,.13.09l-.1.09C65.47,35.64,63,39.64,60,43.34,59.63,43.82,60.44,44.22,60.81,43.78ZM98.5,24.68c4.91,0,9.83,0,14.74.05s11.51-.85,15.87,1.68a.56.56,0,0,0,.45.06.41.41,0,0,0,0,.19,6.16,6.16,0,0,1,.23,2.22c0,.29-.08.6-.13.9C110,27.15,88.3,25.46,68.92,30.7a14.94,14.94,0,0,0-.56-2,6.7,6.7,0,0,1,0-2.82C78.45,24.58,88.38,24.69,98.5,24.68Zm33.34,6c3.42,3.59,6.4,7.75,7.26,12.76.14.81-1.22,1.44-1.53.59-1.64-4.49-3.38-8.91-6.65-12.51C130.4,30.94,131.33,30.14,131.84,30.67ZM139.7,45.8c0-.42-.77-.31-.76.09.56,20.57-.14,41.36-.61,61.93q-.35,15.41-1,30.81c-.24,5.7-.94,11.68-1.27,17.59-9.26-.07-18.75,1-28,1.25a8,8,0,0,0-14.26-5.11.48.48,0,0,0-.83.15A17.4,17.4,0,0,0,92,157c-9.45-.46-18.88-1.43-28.34-1.69.55-36.6-.56-73.38-3.38-109.81A317.69,317.69,0,0,1,99.1,42.66c12.68,0,25.08,1.26,37.64,2.64.75.08,1.09-1.16.28-1.32-25-4.72-52.09-4.31-77,.5a.41.41,0,0,0-.37.07h-.1a.52.52,0,0,0,0,1q2,63.18,2.42,126.29a.67.67,0,0,0,1.3.17l.1,0a.51.51,0,0,0,0,.88,13.85,13.85,0,0,1,4.6,4.41c.93,1.41,1,3.35,2.14,4.58a.53.53,0,0,0,.79-.1,2.88,2.88,0,0,0,.13-.31c3.65,2,7.78,2.28,11.87,2.51a149.15,149.15,0,0,0,15.68.32c4.86-.24,9.63-1.22,14.5-1.35a68.76,68.76,0,0,0,13.59-1.44.8.8,0,0,0,1.31.3c1.11-1.08,1.76-2.52,2.9-3.6a25.4,25.4,0,0,1,3.91-2.74c1.52-1,3.45-2.25,3.51-4.21h0c.46-.36-.07-1.06-.56-.77l-.13.07a.67.67,0,0,0-.3.16c-5.33,2.91-12.76,2.15-18.65,2.45-6.23.31-12.46.58-18.7.59-6.09,0-12.18-.22-18.25-.77s-12.26-2-18.39-2.05c.13-4.79.24-9.6.31-14.4,9.35,1.48,18.92,1.71,28.37,1.86a7.35,7.35,0,0,0,4.35,6.38A8.36,8.36,0,0,0,107,161.43a7.32,7.32,0,0,0,1-2.76c9,.88,19.15,1.06,28-1a72.12,72.12,0,0,0,.24,10.93c.07.62,1.09.56,1.21,0,2.18-9.5,1.57-20.23,2-30q.63-15.9,1-31.81C140.74,86.61,141.66,66,139.7,45.8ZM103.75,175.46c7.23-.17,14.46-.56,21.66-1.22,3.44-.31,7.36-.22,10.6-1.6A24,24,0,0,1,134,174c-.95.62-1.94,1.18-2.86,1.84a13.09,13.09,0,0,0-4.16,4.64,252.46,252.46,0,0,1-55.64,0h0a7.58,7.58,0,0,0-1.72-4.29,13.19,13.19,0,0,0-4.36-3.51c5.23,1.47,11,1.8,16.36,2.23A216.29,216.29,0,0,0,103.75,175.46Zm1.7-14.47a6.64,6.64,0,0,1-8.88,2.09,6.43,6.43,0,0,1-3.17-4.74.69.69,0,0,0-.11-1.2,15.13,15.13,0,0,1,.44-3.94.55.55,0,0,0,.69,0c2.5-2.44,6-3.32,9.07-1.29A6.78,6.78,0,0,1,105.45,161Zm12.66-101.3a30.41,30.41,0,0,0-11.25-3.59c-7.66-.79-17.73-.81-24.65,3.08C75,63.21,72.45,72.66,70.33,80a80,80,0,0,0-3.21,27.3c.5,8.15,1.36,16.24,6.37,23a28.76,28.76,0,0,0,18.77,11.25c16.62,2.5,32.21-8.52,37.42-24.07s8.46-40.73-5-53.42C123,62.1,120.36,60.89,118.11,59.69Zm8.37,59.87c-7.75,18.75-32.83,27.07-48.87,13-7.74-6.8-8.77-15.71-9.19-25.4a82.19,82.19,0,0,1,4.43-30.3c1.45-4.3,3-9.18,5.76-12.81,3.87-5,10.25-6.11,16.15-6.44,4.95-.28,10.29-.62,15.17.39a38.45,38.45,0,0,1,11.4,4.35.74.74,0,0,0,0,1c7.36,7.77,10.57,16.78,10.39,27.48C131.55,100.11,130,111,126.48,119.56ZM109.93,72c-6.06-2-12.09-2.74-18.06-.09C87,74,82.09,78.26,80,83.34c0,0,0,0,0-.08-.06-.31-.53-.17-.49.12s.08.68.11,1-.21.63-.29.95a.64.64,0,0,0,.38.78c.19,7-1.77,16-.91,23.5h-.06c-.27,0-.35.5,0,.56l.17,0c.81,5.94,3.51,10.91,10.66,13.18,6.3,2,15.7,1.56,21.9-.79,5.92-2.25,8-7.47,8.94-13.4a133,133,0,0,0,1-13.38c.2-4.19.79-8.86.1-13C120.46,76.72,115.38,73.75,109.93,72ZM91.47,74.08c5.84-3,11.81-2.33,17.81-.29,3,1,6.18,2.33,8.34,4.81A10.53,10.53,0,0,1,119.9,85a.47.47,0,0,0-.31-.2c-6.35-1.41-13.37-1.1-19.85-1.21a154.69,154.69,0,0,0-18.14.53C84.23,80.06,86.88,76.42,91.47,74.08Zm23.43,45.47c-3.12,2.78-8,3.29-12,3.42-5.83.19-12.66.24-17.49-3.43a14.63,14.63,0,0,1-5.55-9.14c5.9.9,12.08.59,18,.6,7,0,14.16.13,21.14-.36C118.43,113.91,117.36,117.35,114.9,119.55Zm4.51-11.14c0,.38-.11.77-.18,1.16h0c-7-.57-14.12-.5-21.12-.55-6-.05-12.33-.4-18.34.48-1.17-7.35,1.14-16.11.59-23.43a.67.67,0,0,0,.2-.21l.41-.65c6.23.19,12.46,0,18.69.08,6.52.1,13.26,1.08,19.74.65a.71.71,0,0,0,.58-.46c.09,1.6,0,3.22,0,4.75C120,96.27,120.27,102.4,119.41,108.41Z"/>
    <!--    <text x="0" y="215" fill="#000000" font-size="5px" font-weight="bold"-->
    <!--          font-family="'Helvetica Neue', Helvetica, Arial-Unicode, Arial, Sans-serif">-->
    <!--        Created by Caroline Mackay-->
    <!--    </text>-->
    <!--    <text x="0" y="220" fill="#000000" font-size="5px" font-weight="bold"-->
    <!--          font-family="'Helvetica Neue', Helvetica, Arial-Unicode, Arial, Sans-serif">-->
    <!--        from the Noun Project-->
    <!--    </text>-->
</svg>