<svg xmlns:dc="http://purl.org/dc/elements/1.1/"
     xmlns:cc="http://creativecommons.org/ns#"
     xmlns:rdf="http://www.w3.org/1999/02/22-rdf-syntax-ns#"
     xmlns:svg="http://www.w3.org/2000/svg"
     xmlns:sodipodi="http://sodipodi.sourceforge.net/DTD/sodipodi-0.dtd"
     xmlns:inkscape="http://www.inkscape.org/namespaces/inkscape"
     xmlns="http://www.w3.org/2000/svg" version="1.1"
     x="0px" y="0px" viewBox="0 0 100 95">
    <g transform="translate(0,-952.36218)">
        <path d="m 80.999985,968.36218 c 0,9.61344 0.5588,18.1476 0.8438,28 l -3.5,0 c -1.6992,-5.209 -6.58899,-9 -12.3438,-9 -6.81256,0 -12.41393,5.31484 -12.9375,12 l -6.125,0 c -0.52357,-6.68516 -6.12494,-12 -12.9375,-12 -5.75481,0 -10.6446,3.791 -12.34377,9 l -3.0312,0 c 1.0765,-10.27596 3.4455,-19.69613 6.37497,-28 l 10,12 c 11.31087,-2.21831 23,-2 35,0 z m -15,28 c -1.10457,0 -2,1.79086 -2,4.00002 0,2.2091 0.89543,4 2,4 1.10457,0 2,-1.7909 2,-4 0,-2.20916 -0.89543,-4.00002 -2,-4.00002 z m -32,0 c -1.10457,0 -2,1.79086 -2,4.00002 0,2.2091 0.89543,4 2,4 1.10457,0 2,-1.7909 2,-4 0,-2.20916 -0.89543,-4.00002 -2,-4.00002 z m 47.875,2 c 0.071,2.86972 0.125,5.82952 0.125,9.00002 0,17 -10.78873,29 -26,29 l -12,0 c -16,0 -25.99997,-12 -25.99997,-28 0,-3.4117 0.1531,-6.7455 0.4375,-10.00002 l 2.75,0 c -0.1038,0.6599 -0.1875,1.34357 -0.1875,2.03122 0,7.156 5.84395,13 12.99997,13 6.82615,0 12.46451,-5.3302 12.96875,-12.0312 l 6.0625,0 c 0.50424,6.701 6.1426,12.0312 12.96875,12.0312 7.15602,0 13,-5.844 13,-13 0,-0.68765 -0.084,-1.37132 -0.1875,-2.03122 z m -31.875,11.50002 c -1.65685,0 -3,0.8954 -3,2 0,0.78 0.67921,1.4515 1.65625,1.7812 -0.62363,4.1407 -0.51573,8.4876 0.28125,12.4375 0.0443,0.9276 -0.70284,1.5312 -1.5625,1.875 -0.99387,0.3976 -2.0098,0.3652 -2.65625,-0.2812 -0.36811,-0.3765 -1.06109,-0.3995 -1.4375,-0.031 -0.37638,0.3682 -0.36833,1.0612 0,1.4375 1.35355,1.3535 3.33762,1.3212 4.84375,0.7187 0.69736,-0.2789 1.35874,-0.6726 1.875,-1.1875 0.51626,0.5149 1.17764,0.9086 1.875,1.1875 1.50613,0.6025 3.4902,0.6348 4.84375,-0.7187 0.36835,-0.3763 0.3764,-1.0693 0,-1.4375 -0.37641,-0.3683 -1.06939,-0.3453 -1.4375,0.031 -0.64645,0.6464 -1.66238,0.6788 -2.65625,0.2812 -0.99217,-0.4814 -1.55762,-1.0556 -1.8125,-2.1875 -0.67301,-3.6364 -0.72951,-8.1657 -0.15625,-11.9375 1.33612,-0.202 2.34375,-1.0168 2.34375,-1.9687 0,-1.1046 -1.34315,-2 -3,-2 z"
              style="color:#000000;enable-background:accumulate;"
              fill="#6a7282" stroke="none" marker="none" visibility="visible"
              display="inline" overflow="visible"/>
    </g>
    <text x="0" y="115" fill="#000000" font-size="5px" font-weight="bold"
          font-family="'Helvetica Neue', Helvetica, Arial-Unicode, Arial, Sans-serif">
        Created by sandra
    </text>
    <text x="0" y="120" fill="#000000" font-size="5px" font-weight="bold"
          font-family="'Helvetica Neue', Helvetica, Arial-Unicode, Arial, Sans-serif">
        from the Noun Project
    </text>
</svg>