<svg xmlns:xlink="http://www.w3.org/1999/xlink"
     xmlns="http://www.w3.org/2000/svg" version="1.1" x="0px" y="0px"
     viewBox="0 9 100 85" style="enable-background:new 0 0 100 100;"
     fill="#6a7282"
     xml:space="preserve"><path d="M91.1,39.8c4-12.9,3-25.7-0.9-29.1C87,7.7,74.7,16.2,67,22.2c-7.5-2.1-21.8-4.4-34.8,2.5c-0.1,0.1-0.2,0.1-0.4,0.2  c-8.6-4.1-22.5-10.2-25.5-8.1c-4.1,2.9-1.1,25.4,7.8,36.4c-1,6.6-1.5,19.7,8.7,28.3C39,95.2,75.2,91.9,89.2,73.8  C96.8,64.1,97.5,50.6,91.1,39.8z M62.9,77.4c-1.9-0.3-3.7-0.8-5.5-1.5c-1.2-0.5-2.5-1-3.4-1.9c-0.6,1.1-1.6,2.1-2.6,2.9  c-1.4,1.3-3,2.3-4.6,3.3c-0.6,0.4-1.5,0-1.8-0.6c-0.3-0.7,0-1.4,0.6-1.8c1.4-0.8,2.7-1.7,4-2.8c1-0.9,2.2-1.8,2.3-3.3  c0-0.7-0.1-1.5-0.2-2.2c-0.2-0.9-0.3-1.9-0.5-2.8c-0.1-0.6-0.2-1.2-0.3-1.8c-4.3-0.3-7.6-3.9-7.2-5.8c0.7-3.6,14.2-5.6,15.8-2.4  c1,1.8-1.3,6.5-5.6,7.9c0.1,0.5,0.2,1.1,0.3,1.6c0.2,0.9,0.3,1.9,0.5,2.8c0.1,0.7,0.2,1.5,0.5,2.1c0.6,1.3,2,1.8,3.3,2.3  c1.5,0.6,3.1,1,4.7,1.3c0.7,0.1,1.3,0.7,1.2,1.4C64.3,76.9,63.6,77.5,62.9,77.4z"/>
    <text x="0" y="115" fill="#000000" font-size="5px" font-weight="bold"
          font-family="'Helvetica Neue', Helvetica, Arial-Unicode, Arial, Sans-serif">Created by Ecem Afacan</text>
    <text x="0" y="120" fill="#000000" font-size="5px" font-weight="bold"
          font-family="'Helvetica Neue', Helvetica, Arial-Unicode, Arial, Sans-serif">from the Noun Project</text></svg>