<svg xmlns="http://www.w3.org/2000/svg" version="1.1"
     viewBox="30 25 35 50" fill="#99a1af">
    <!-- fill="#6a7282" -->
    <defs>
        <clipPath id="a">
            <path d="m40 27.785h20v44h-20z"/>
        </clipPath>
    </defs>
    <g clip-path="url(#a)">
        <path d="m43.207 68.641c0.60156 0.050781 1.1016 0.082031 1.5898 0.14453 0.76953 0.10156 1.5742 0.11719 2.3008 0.35156 0.71875 0.23438 1.1211 0.79688 0.79297 1.6016-1.875 1.0469-5.4688 0.64844-7-0.77344-1.0977-1.0312-1.1406-2.7109 0.082031-3.7266 0.73438-0.60938 1.6797-1.0195 2.5859-1.3672 1.0469-0.39844 2.1602-0.62109 3.4688-0.98438-0.38281-0.19531-0.53906-0.30469-0.71094-0.35156-3.9219-1.0664-5.9219-4.1602-5.1641-8.0508 0.44141-2.2969 1.2812-4.4688 2.4844-6.4805 1.1875-1.9844 1.4414-4.1914 1.8281-6.3672 0.0625-0.39062-0.20312-0.95312-0.5-1.2734-1.1641-1.1914-1.543-2.582-1.2305-4.1406 0.51562-2.5977 1.082-5.1914 1.6719-7.7812 0.097656-0.44531 0.37891-0.85156 0.625-1.3828 1.5781 0.84375 1.9648 2.4141 3.0156 3.5664h2.8125c0.84375-1.168 1.7188-2.3711 2.793-3.8477 0.39453 0.76562 0.73438 1.1875 0.83594 1.6602 0.60156 2.6289 1.1562 5.2773 1.6953 7.9219 0.3125 1.5273-0.10938 2.875-1.2617 3.9727-0.52734 0.50781-0.55859 1.0625-0.45312 1.7266 0.40625 2.4922 1.1523 4.8359 2.3594 7.1172 0.92188 1.7305 1.5156 3.6797 1.9258 5.5938 0.92188 4.2422-2.3828 7.5234-5.4688 7.8047-1.1758 0.10938-2.0859 0.63281-3.0469 1.3047-0.97266 0.67969-2.2383 0.99609-3.3984 1.3828-0.9375 0.30469-1.9453 0.42578-2.8867 0.71875-0.70312 0.21094-1.4492 0.45312-1.7461 1.6602z"/>
    </g>
    <!--    <text x="0.0" y="117.5" font-size="5.0" font-weight="bold"-->
    <!--          font-family="Arbeit Regular, Helvetica, Arial-Unicode, Arial, Sans-serif"-->
    <!--          fill="#000000">Created by Hazann-->
    <!--    </text>-->
    <!--    <text x="0.0" y="122.5" font-size="5.0" font-weight="bold"-->
    <!--          font-family="Arbeit Regular, Helvetica, Arial-Unicode, Arial, Sans-serif"-->
    <!--          fill="#000000">from Noun Project-->
    <!--    </text>-->
</svg>