<svg xmlns:xlink="http://www.w3.org/1999/xlink"
     xmlns="http://www.w3.org/2000/svg" version="1.1" x="0px" y="0px"
     viewBox="0 10 100 80" style="enable-background:new 0 0 100 100;"
     fill="#6a7282"
     xml:space="preserve"><g><path d="M28.6,29.8c4.7-0.6,9.2-1.8,13.9-2.3c5.3-0.6,10.5-1,15.8-1.5c2.5-0.3,4.9,0.1,7.4,0c2.4-0.2,3-1.2,4.2-3.2   c1.7-2.7,5.2-11.4,9.2-10.3c3.6,1,7.1,6.9,9.3,9.7c3,3.9,5.3,7.4,7,12.1c3.6,9.6,1.3,18.7-1,28.2c-2.3,9.7-11,14.9-19.5,18.7   c-9.7,4.3-19.3,6.8-30,6.7c-5-0.1-9.4-1.3-14.1-2.9c-4.7-1.5-9.6-3-13.2-6.5c-3-2.8-4.8-6.5-7.2-9.8c-3.1-4.3-5.2-8.5-6.3-13.7   c-1-4.9-2.2-11.2-0.8-16C5,33.7,6.9,28.6,9.8,23.9c2.5-4,6.1-10.7,11.1-6.4c2.1,1.8,2.8,3.6,4.2,5.9C26.4,25.4,28,27.3,28.6,29.8z    M39.4,32.8c1,2,2.7,8.2-1.2,4.4c-2.7-2.5-1.9-4.5-5.9-3.7c-3,0.6-4.7,0.9-6.6-1.8c-1.2-1.8-2.1-3.8-3.3-5.6   c-0.7-1.1-2.6-5.4-4.1-5.5c-2.3-0.2-5.3,6.2-6.2,7.8c-2,3.6-4.6,8.1-5.2,12.2c-0.2,1.8,0.6,3.1,0.8,4.9c0.2,2.4-0.2,4.8,0.2,7.2   c0.7,4.6,2.3,8.8,4.8,12.7c2.4,3.6,4.8,7.3,8,10.2c3.5,3.2,8.3,4.6,12.7,5.9c9.2,2.8,18.4,2.6,27.6,0.2c8.4-2.2,17.5-5,23.9-11.1   c3.1-3,4.8-6.2,5.6-10.4c0.9-4.4,2.4-8.9,2.7-13.4c0.6-10.1-5.4-19.7-11.8-27c-2.2-2.4-2.3-3.3-4.1-0.6c-1.2,1.8-2.4,3.6-3.6,5.4   c-0.8,1.3-1.5,4-2.6,4.9c-1.3,1-3.2,0.6-4.8,0.7c0.1,2.1-0.6,4.5-2.8,2.5c-0.8-0.7-2.5-5.3-3.2-2c-0.2,1.1,3.4,5.2,0,5.4   c-2.5,0.2-2.9-4.7-2.2-6.3c-1.8-0.1-3.9-0.1-4.1,1.6c-0.2,1.2,1.8,3.1-0.3,3.9c-2.6,1-3.9-7.7-7-3.9c-0.4,0.4,2.4,8.7-1.7,5.3   C42.6,35,43.4,29.9,39.4,32.8z"/><path
        d="M59.9,67.2c-1.4,2.7-3.6,3.2-4.7,0c-1.1-3.4,0.5-7.8-1-11.1c-1.2-2.7-5.1-1.2-6-3.8c-1.1-3.4,4.5-4.5,6.7-4.5   c2,0,8.7,0.7,8.3,3.8c-0.4,2.8-4.7,1.2-4.5,4.6c0.2,3.5,3.8,6,5.3,8.7C66.3,69,62.5,67.9,59.9,67.2z"/><path
        d="M17.2,27.6c0.5,1.5,0.1,2.6,0.5,4.1c0.4,1.5,1.7,2.7,1.9,4.3c0.4,2.3-0.8,5.1-3.3,5.6c-3.6,0.7-3.9-3.7-3.8-6.1   C12.9,31.9,14.4,29.5,17.2,27.6z"/><path
        d="M75.5,44.9c-4-0.1-6.3-8.7-2.3-9.2c1.6-0.2,4.1,3,4.6,4.3C78.8,42.5,77.6,43.8,75.5,44.9z"/><path
        d="M77.2,25.3c2.2-6,7.8,2.9,6.9,5.5c-0.8,2.2-3.1,2.1-4.6,0.8C77.8,30,77.4,27.4,77.2,25.3z"/><path
        d="M30.5,44.9c-0.1-5.6,6.2-1.5,6.6,2.2C37.8,52.7,30.9,48.8,30.5,44.9z"/><path
        d="M69.5,56c-2.9-0.2-2.5-4.2,0.2-4C72.3,52.2,72.4,56.2,69.5,56z"/><path
        d="M42.5,59c-3.3-0.1-2.2-4.4,0.6-3.7C45.7,55.9,45,59,42.5,59z"/><path
        d="M78.7,53.2c-2.8,0-2.8-3.7-0.1-3.6C81,49.7,81.5,53.2,78.7,53.2z"/><path
        d="M31.8,63.6c-3.5-0.1-2.5-4.2,0.3-3.6C34.6,60.6,34.4,63.7,31.8,63.6z"/><path
        d="M76.2,61.8c-2.8,0.1-2.9-3.6-0.1-3.5C78.7,58.4,79,61.7,76.2,61.8z"/><path
        d="M42.3,70c-2.6,0-3.1-3.4-0.4-3.7C44.2,66.2,45.1,70,42.3,70z"/></g>
    <text x="0" y="115" fill="#000000" font-size="5px" font-weight="bold"
          font-family="'Helvetica Neue', Helvetica, Arial-Unicode, Arial, Sans-serif">Created by Lauren Manninen</text>
    <text x="0" y="120" fill="#000000" font-size="5px" font-weight="bold"
          font-family="'Helvetica Neue', Helvetica, Arial-Unicode, Arial, Sans-serif">from the Noun Project</text></svg>