<svg xmlns="http://www.w3.org/2000/svg" version="1.1"
     viewBox="-5.0 10.0 110.0 75" fill="#6a7282">
    <path d="m70.121 40.652c3.8008 0.96484 2.3594 6.668-1.4453 5.7031-3.8008-0.96094-2.3555-6.668 1.4453-5.7031"/>
    <path d="m85.223 41.836c-1.1875-0.097657-2.3125 0.53125-2.8555 1.5898-0.54297 1.0586-0.39453 2.3398 0.375 3.2461 0.77344 0.90625 2.0117 1.2617 3.1445 0.89453 1.1328-0.36328 1.9336-1.375 2.0312-2.5625 0.0625-0.77734-0.1875-1.5469-0.69141-2.1406-0.50391-0.59375-1.2266-0.96484-2.0039-1.0273z"/>
    <path d="m85.832 72.789c4.3672-7.2109 9.2969-21.91 5.6953-49.793l-8.0625 13.309-10.879-1.0234-6.6562-14.203s-4.4805 21.246-4.9922 25.723c0 0-39.543-8.0195-43.68 25.199-1.9531-0.96484-5.3008-3.1523-5.8906-5.9883-0.45703-2.1992 0.78125-4.8008 3.6797-7.7266 10.973-11.086 13.434-21.785 11-27.469-1.1875-2.9492-4.0898-4.8438-7.2656-4.7461-3.7695 0.066407-5.7031 1.75-6.6641 3.1523-2.4219 3.5352-0.77344 8.332-0.57422 8.8711v-0.003906c0.28516 0.78516 0.87109 1.4258 1.6289 1.7734 0.75781 0.35156 1.625 0.38672 2.4062 0.09375 0.78516-0.28906 1.418-0.87891 1.7656-1.6406 0.34375-0.76172 0.37109-1.6289 0.074219-2.4102-0.36328-1.0625-0.49609-2.6172-0.12891-3.1445h0.003907c0.46094-0.33594 1.0312-0.48828 1.5977-0.42188 0.63672-0.082032 1.2305 0.32031 1.3906 0.94141 1.2461 2.918-0.28125 11.086-9.6875 20.594-4.4844 4.5273-6.2852 9.0508-5.3555 13.449 0.9375 4.4336 4.8555 7.6953 7.9141 9.6133 2.0781 1.3008 4.4805 1.9883 6.9297 1.9844h73.16c0.63672 0.003906 1.2227-0.33984 1.5312-0.89844 0.30859-0.55859 0.28516-1.2383-0.0625-1.7734-1.543-2.2852-5.1602-3.1875-8.8789-3.4609zm-16.836-24.312c-2.0117-0.16406-3.7266-1.5195-4.3438-3.4414-0.62109-1.9219-0.023438-4.0234 1.5156-5.332 1.5352-1.3047 3.7109-1.5586 5.5078-0.63672 1.793 0.91797 2.8594 2.8281 2.6953 4.8398-0.10547 1.3203-0.73438 2.543-1.7422 3.3984-1.0078 0.85937-2.3164 1.2773-3.6328 1.1719zm11.758 1.6523c-0.65625 0.97656-1.3438 1.4688-2.0508 1.4688-0.046875 0-0.09375-0.003906-0.14062-0.007812h0.003906c-0.75-0.16016-1.3906-0.64844-1.7383-1.332-0.40625 0.64453-1.1172 1.0391-1.8789 1.0391-1.2422-0.11328-1.9609-1.7383-1.9922-1.8086-0.074219-0.17578 0.007813-0.37891 0.18359-0.45703 0.17578-0.074219 0.37891 0.003906 0.45703 0.17969 0.16016 0.36719 0.72656 1.332 1.418 1.3945 0.57422 0.050781 1.1211-0.54688 1.4961-1.0859l0.14453-1.7734-0.84375-0.070313h-0.003906c-0.38672-0.03125-0.67188-0.36719-0.64062-0.75 0.03125-0.38672 0.36719-0.67188 0.75-0.64062l2.3828 0.19141 0.003907 0.003907c0.37109 0.027343 0.65234 0.34766 0.64062 0.71875-0.015624 0.375-0.32422 0.67188-0.69531 0.67188-0.019531 0-0.039062 0-0.058594-0.003906l-0.84375-0.070313-0.13672 1.6992 0.003906 0.007812c0.16016 0.36719 0.72656 1.332 1.418 1.3945 0.60156 0.050781 1.1719-0.60156 1.5469-1.1562l-0.003907-0.003907c0.10547-0.15625 0.32422-0.19922 0.48047-0.09375 0.16016 0.10938 0.20312 0.32422 0.097656 0.48438zm-0.74219-5.7617v-0.003907c0.16406-2.0078 1.5234-3.7227 3.4414-4.3438 1.9219-0.61719 4.0273-0.019531 5.332 1.5156 1.3086 1.5391 1.5586 3.7109 0.64062 5.5078-0.92188 1.7969-2.832 2.8594-4.8438 2.6992-2.7461-0.22266-4.793-2.6328-4.5703-5.3789z"/>
    <text x="0.0" y="117.5" font-size="5.0" font-weight="bold"
          font-family="Arbeit Regular, Helvetica, Arial-Unicode, Arial, Sans-serif"
          fill="#000000">Created by Kim Sun Young
    </text>
    <text x="0.0" y="122.5" font-size="5.0" font-weight="bold"
          font-family="Arbeit Regular, Helvetica, Arial-Unicode, Arial, Sans-serif"
          fill="#000000">from Noun Project
    </text>
</svg>