<svg xmlns="http://www.w3.org/2000/svg" viewBox="15 0 70 100" x="0px" y="0px"
     fill="#000">
    <path d="M50.59,18.24h0Zm-9-5.1a3.6,3.6,0,0,1-.07-1.35A3.08,3.08,0,0,1,42,10.38a4,4,0,0,1,1.22-1.07,5,5,0,0,1,1.53-.61,6.75,6.75,0,0,1,1.09-.13l.12,0a.7.7,0,0,1,.8.55.7.7,0,0,1-.56.8l-.16,0c.1.13.2.26.31.38A9.48,9.48,0,0,1,47.66,12c.19.33.36.67.52,1s.35.67.51,1a7.92,7.92,0,0,1,.51,1.36.84.84,0,0,1,.88,1.41,6.23,6.23,0,0,1-1.56,1.06,5.6,5.6,0,0,1-1.9.48,3,3,0,0,1-.43,0A2.73,2.73,0,0,1,44.91,18a5,5,0,0,1-1.16-.95,8.55,8.55,0,0,1-.92-1.25,12.54,12.54,0,0,1-.73-1.41A8.57,8.57,0,0,1,41.56,13.14Zm1.59-.8a.22.22,0,0,0,0,.08.57.57,0,0,0,0,.18c0,.08.05.16.07.24.14.34.32.67.49,1l.53,1a10.84,10.84,0,0,0,.62,1l.21.25a3.07,3.07,0,0,0,.26.25l.25.18.08.05.1,0,.08,0,.16,0h0a3.34,3.34,0,0,0,.45,0c.25,0,.49-.07.73-.12l.35-.11c.08,0,.16-.08.24-.12-.12-.41-.22-.82-.37-1.23s-.36-.75-.55-1.13-.33-.73-.52-1.08l0,0a.25.25,0,0,1,0-.07v0h0c-.12-.21-.25-.41-.39-.61l-1.19-1.5-.15-.18h0l-.08-.08-.12.06-.41.26c-.18.14-.36.28-.53.44l-.1.11,0,0,0,0a2.25,2.25,0,0,0-.08.24l-.06.26C43.17,12,43.16,12.19,43.15,12.34ZM51.91,18h0Zm16.42,4.49c-.31-.21-.63-.42-1-.62s-.79-.47-1.2-.68a2.76,2.76,0,0,0-.4-.18l-.14,0h0a.59.59,0,0,0-.19,0h0a.63.63,0,0,0-.37.12.74.74,0,0,0-.29.86c.09.29.37.43.61.58s.71.46,1.06.69c.61.41,1.22.84,1.81,1.28l0,0a.91.91,0,0,0,.56.2.8.8,0,0,0,.6-.27.84.84,0,0,0-.07-1.15A11.63,11.63,0,0,0,68.33,22.52ZM49.52,18.63a9.69,9.69,0,0,1,1.07-.38,2.88,2.88,0,0,1,.64-.17c.2,0,.4,0,.6,0h0A.65.65,0,1,1,52,19.31l-.4.05.49.69a14.54,14.54,0,0,1,.83,1.22,5,5,0,0,1,.37.68.73.73,0,0,1,.78,1.23,15.19,15.19,0,0,1-1.68.92,4.06,4.06,0,0,1-1.72.53h0a2.77,2.77,0,0,1-1.55-.47,4,4,0,0,1-1-1.06,4.88,4.88,0,0,1-.34-.58,3.81,3.81,0,0,1-.28-.62,2.54,2.54,0,0,1-.13-1.06,2.25,2.25,0,0,1,.32-.91,2.33,2.33,0,0,1,.65-.6A7,7,0,0,1,49.52,18.63Zm.09,1.58,0,0c-.23.16-.46.34-.67.52l-.07.07v.06a.64.64,0,0,0,0,.07h0s0,.06,0,.09,0,0,0-.06l0,.17v0a1.82,1.82,0,0,0,.07.25c0,.06,0,.12.07.17a6.19,6.19,0,0,0,.39.67,1.56,1.56,0,0,0,.16.2,4.26,4.26,0,0,0,.42.43l.15.11.08.06.21.08.16,0,.14,0h.23l.23-.07q.34-.14.69-.3a.2.2,0,0,0-.08,0l.19-.1-.06-.15c-.12-.23-.25-.44-.39-.66s-.32-.54-.49-.8-.36-.54-.55-.8-.19-.28-.29-.41C50,20,49.78,20.1,49.61,20.21Zm13.88,5.13-.05,0a.79.79,0,0,0-1.08.22.77.77,0,0,0,.21,1.08l.47.26a7.83,7.83,0,0,1,.67.45.76.76,0,0,0,.43.14.87.87,0,0,0,.69-.36A.8.8,0,0,0,64.6,26,12.37,12.37,0,0,0,63.49,25.34ZM24.39,66.25c-.07-.26-.13-.52-.19-.78-.08-.5-.13-1-.17-1.51s0-1.19,0-1.79c.08-.8.19-1.6.34-2.39.23-1,.5-2.07.71-3.11v-.05a1.46,1.46,0,0,1,.05-.2.79.79,0,1,0-1.55-.33l-.12.74c-.17.72-.41,1.43-.61,2.14a18.18,18.18,0,0,0-.52,2.52,13.65,13.65,0,0,0-.15,2.56,12.44,12.44,0,0,0,.1,1.36,10.11,10.11,0,0,0,.27,1.33,1,1,0,0,0,.91.69,1,1,0,0,0,.24,0A1,1,0,0,0,24.39,66.25ZM61,47.19a22.63,22.63,0,0,0-2.1-.87A.89.89,0,0,0,58.23,48c1,.38,1.92.79,2.84,1.26a7.94,7.94,0,0,1,.87.55c.14.11.28.22.42.35l.15.16a2.14,2.14,0,0,1,.13.19c0,.08.08.15.12.22s0,.1,0,.14a2.21,2.21,0,0,1,.08.37,1.5,1.5,0,0,1,0,.2c0,.15,0,.29,0,.43s0,.29-.08.43l0-.08,0,.08v0c-.05.19-.1.39-.17.58a6.2,6.2,0,0,1-.36.79c-.12.2-.25.39-.38.58-.27.35-.55.69-.85,1s-.75.69-1.14,1c-.58.45-1.17.89-1.77,1.31s-1.11.79-1.69,1.14h0l0,0h0L56,59l-.17.06h0a.65.65,0,0,0,.15,1.29h.13a5.73,5.73,0,0,0,1.39-.54,15.92,15.92,0,0,0,1.74-1,20.51,20.51,0,0,0,1.73-1.2l.86-.7c.24-.22.47-.46.7-.69s.43-.51.63-.77a7.5,7.5,0,0,0,.61-.9,7.64,7.64,0,0,0,.53-1.12c.11-.35.2-.7.28-1.06a3.77,3.77,0,0,0-1.15-3.6A11.28,11.28,0,0,0,61,47.19ZM73.68,30.33l0,0,0,0Zm4.39,1.92a5.6,5.6,0,0,0-.57-2,11.22,11.22,0,0,0-1-1.82,8.93,8.93,0,0,0-.66-.81A10.24,10.24,0,0,0,75,26.9a1,1,0,0,0-1.43.1,1,1,0,0,0,.09,1.42l.52.5.35.42.43.63c.22.41.42.83.61,1.24a6.37,6.37,0,0,1,.25.69,3.38,3.38,0,0,1,.08.34c0,.44,0,.89.06,1.35v0a11.2,11.2,0,0,0-2.08-3.12h0l-.21-.25,0,0a.78.78,0,0,0-1.16.05.79.79,0,0,0,.1,1.07c.38.5.72,1,1.06,1.57.13.2.25.41.36.62s.19.46.28.7.11.46.16.69,0,.35.07.53v.27a4.44,4.44,0,0,1-.15.52l0-.12-.29.83c0,.13-.1.26-.16.39l-.12.1.07,0-.09.07h0c-.19.14-.39.28-.59.4l-.33.16c-.33.13-.66.25-1,.35h0l-.12,0,0,0a6,6,0,0,1-.61.14q-.69.09-1.41.12h0a20.7,20.7,0,0,1-2.08-.11l-2.13-.23a44.62,44.62,0,0,1-5.36-1.08l.06,0a47.46,47.46,0,0,1-5.57-1.9h0l-.07,0h0c-.84-.35-1.68-.71-2.49-1.12-1-.51-2-1-3-1.59s-2.07-1.3-3.07-2l-1.46-1c-.44-.31-.88-.62-1.31-.94a26.23,26.23,0,0,1-2.17-1.91l0,0a24.38,24.38,0,0,1-1.87-2.08c-.25-.34-.5-.67-.72-1s-.47-.69-.68-1.05v0l0,0,0-.06,0,0a11,11,0,0,1-.52-1,13.29,13.29,0,0,1-.49-1.51h0v0l0-.07v0a7.43,7.43,0,0,1-.16-.82,12.62,12.62,0,0,1-.1-1.51c0-.43,0-.86,0-1.29a.73.73,0,1,0-1.41-.34,5,5,0,0,0-.11,1v1.31c0,.3,0,.6,0,.91s.08.61.13.92c.11.54.25,1.07.39,1.6a7.54,7.54,0,0,0,.66,1.58c.28.54.63,1,1,1.57a14,14,0,0,0,1.09,1.47c.43.52.87,1,1.33,1.53s1,1,1.55,1.49,1,.88,1.54,1.28l1.52,1.12c1,.75,2,1.48,3.05,2.14.62.39,1.25.76,1.89,1.09s1.31.6,2,.92c1.13.57,2.27,1.11,3.45,1.58.56.23,1.12.47,1.7.68s1.27.41,1.91.59c1.33.38,2.67.74,4,1a33.65,33.65,0,0,0,3.88.6l1.81.16a16.37,16.37,0,0,0,1.72.09h.09a12.29,12.29,0,0,0,1.6-.11,10.31,10.31,0,0,0,1.8-.45,5.61,5.61,0,0,0,1.68-.83,10.46,10.46,0,0,0,1.49-1.26,5.72,5.72,0,0,0,1.08-1.66,10,10,0,0,0,.64-2,4.65,4.65,0,0,0,.06-1.18C78.1,32.94,78.1,32.59,78.07,32.25Zm5.81,3.65A10,10,0,0,1,83,40.09a8.91,8.91,0,0,1-1.3,2,6.79,6.79,0,0,1-1.5,1.38,8.6,8.6,0,0,1-2,1,9.33,9.33,0,0,1-1.89.39c0,.27-.07.53-.12.8-.12.65-.15,1.32-.29,2a12.92,12.92,0,0,1-.45,1.7,10.56,10.56,0,0,1-.82,1.81,28.58,28.58,0,0,1-2.07,3.23c-.37.5-.77,1-1.14,1.47s-.72,1-1.12,1.41-1,1.14-1.49,1.73c-.25.31-.5.62-.75.91s-.54.58-.82.87a.94.94,0,0,0,.1-.1c-.25.27-.49.55-.75.81a8.45,8.45,0,0,1-.9.8,9.06,9.06,0,0,1-1,.67h0a1.08,1.08,0,0,1-.66.74,17.16,17.16,0,0,1-4.39.79l-.4,0c.05.08.11.15.17.23.32.41.66.82,1,1.2h0l.07.08,0,0c.4.42.83.81,1.25,1.21A13.46,13.46,0,0,1,63,68.78c.44.58.93,1.14,1.41,1.69s.89,1,1.36,1.51c.87.92,1.74,1.82,2.66,2.7s2,1.81,2.89,2.78a14.83,14.83,0,0,1,1.39,1.67,9,9,0,0,1,1,1.75A6.69,6.69,0,0,1,74,82a9.17,9.17,0,0,1,.16,1,7.23,7.23,0,0,1-.37,2.77,1,1,0,0,1-.35.49c0,.13-.09.25-.14.37s-.18.42-.29.61a10.69,10.69,0,0,1-.69,1.18c-.3.42-.62.82-1,1.22s-.9,1-1.38,1.41a1.11,1.11,0,0,1-.66,1.11,16.61,16.61,0,0,1-4.43,1.63,41.49,41.49,0,0,1-4.59.47l.16,0c-1.37.12-2.72.28-4.1.33s-2.87.07-4.31.15-2.76.14-4.14.14-2.76,0-4.14.11c-.54,0-1.09,0-1.64,0h-.59c-.71,0-1.42-.06-2.12-.09-1,0-2-.05-3-.06s-2.12-.15-3.18-.26c-.9-.1-1.78-.24-2.66-.41a1.1,1.1,0,0,1-.79.32,1.34,1.34,0,0,1-.35,0,7.61,7.61,0,0,1-1-.35c-.36-.17-.71-.34-1.07-.54a14.17,14.17,0,0,1-1.89-1.31c-.28-.22-.54-.47-.81-.7s-.55-.49-.82-.75c-.53-.52-1-1-1.55-1.61s-1-1.16-1.46-1.76a18.47,18.47,0,0,1-1.25-1.66,19.42,19.42,0,0,1-1-1.78c-.1-.21-.19-.43-.29-.64a1,1,0,0,1-.47-.53,27.68,27.68,0,0,1-1.14-5.24,45.09,45.09,0,0,1-.21-4.65V73c0-1.25-.1-2.49-.13-3.73v.15c0-1.36-.17-2.72-.2-4.08,0-.65,0-1.31.06-2s.09-1.42.16-2.13c.13-1.34.24-2.69.41-4s.36-2.86.57-4.29.41-2.75.65-4.12.41-2.53.64-3.79.58-2.59.86-3.89.68-2.81,1.05-4.2c.43-1.62.91-3.22,1.41-4.81.25-.82.48-1.64.77-2.45s.73-1.74,1.09-2.61v0c.13-.33.25-.66.38-1a9,9,0,0,1,.52-1l.37-.63a2.65,2.65,0,0,1,.45-.78l.07-.08c.07-.12.15-.23.21-.34v0a.78.78,0,0,1,.37-.35l.29-.34A12.84,12.84,0,0,1,28,21.16a11.66,11.66,0,0,1,.23-3.77,9.59,9.59,0,0,1,.51-1.57,13.07,13.07,0,0,1,.66-1.48c.26-.48.51-.95.79-1.41a6.85,6.85,0,0,1,1-1.21c.4-.39.77-.81,1.2-1.17a5.49,5.49,0,0,1,1.59-1,7.17,7.17,0,0,1,1-.27s0-.08,0-.12a4,4,0,0,1,.54-1,7.48,7.48,0,0,1,.88-.9,7.92,7.92,0,0,1,1-.76,7.42,7.42,0,0,1,1.63-.72,17.15,17.15,0,0,1,1.67-.55,12.39,12.39,0,0,1,1.71-.26c.47,0,.93-.06,1.4,0s1,.07,1.46.11l.31,0A1.12,1.12,0,0,1,46,5.06a3.2,3.2,0,0,1,2,.63A8.33,8.33,0,0,1,49.23,6.8c.36.4.68.81,1,1.23s.79,1,1.16,1.56c.17.25.34.51.5.77a4.77,4.77,0,0,1,.76,0,10.83,10.83,0,0,1,1.48.17,21,21,0,0,1,2,.48c1.48.42,2.9.94,4.34,1.48a85,85,0,0,1,8.09,3.49,25.18,25.18,0,0,1,3.8,2.42c1.16.85,2.32,1.74,3.41,2.69a25.94,25.94,0,0,1,3,3,29.4,29.4,0,0,1,2.54,3.52,19.12,19.12,0,0,1,1.85,3.84,14.15,14.15,0,0,1,.49,2.12A15,15,0,0,1,83.88,35.9ZM54.1,16.65h0Zm-16.87-6.4a.71.71,0,0,0,0,.14s0,.07,0,.1l0,.1c.12.3.25.6.38.9a2.64,2.64,0,0,0,.18.38c.8,1.38,1.68,2.73,2.6,4s2.19,2.68,3.31,4,2,2.36,3.05,3.48A16,16,0,0,0,48,24.5a16.73,16.73,0,0,0,1.62,1.13l0,0,0,0h0l0,0c.24.14.49.26.75.38l.35.13.21,0,.23,0h0a9.39,9.39,0,0,0,1.19-.09h0a7.25,7.25,0,0,0,1-.18,6.14,6.14,0,0,0,.73-.22c.17-.06.32-.14.48-.21l.46-.3.4-.34.22-.22a2.2,2.2,0,0,0,.17-.25,2.59,2.59,0,0,0,.14-.29,1.07,1.07,0,0,0,.07-.19c0-.07,0-.14.05-.21v-.19c0-.36,0-.72,0-1.08l-.12-.66c-.11-.36-.23-.69-.36-1-.32-.79-.71-1.56-1.11-2.32s-.78-1.38-1.2-2-.88-1.31-1.33-2l-.55-.78h0l-.11-.19A4.53,4.53,0,0,0,51,13l-.06-.08-.14-.17-.14-.18v0l0,0h0l-.18-.26a0,0,0,0,1,0,0c-.17-.25-.34-.51-.53-.76h0l-.59-.86c-.35-.45-.71-.88-1.07-1.32s-.6-.71-.92-1.06-.53-.49-.8-.73l0,0-.18-.09A1.75,1.75,0,0,0,46,7.32l-.17,0a1.08,1.08,0,0,1-.71-.48c-.51,0-1,.07-1.53.13a18.1,18.1,0,0,0-2.17.43l-.29.1-1.23.46.13,0a12.34,12.34,0,0,0-1.18.51,1.37,1.37,0,0,0-.2.13,4.16,4.16,0,0,0-.39.32l-.42.41h0l-.25.26a3,3,0,0,0-.18.25c0,.09-.09.16-.13.25l0,.09a.09.09,0,0,0,0,.05A.41.41,0,0,0,37.23,10.25Zm20,17,.11,0-.61-.23-.08.09a7,7,0,0,1-3.34,1.48,10.16,10.16,0,0,1-1.66.18c.31.21.62.4.94.58,1,.55,2,1.07,3,1.57s1.84.85,2.78,1.24a28,28,0,0,0,2.89,1c.53.13,1.07.24,1.62.32a20.31,20.31,0,0,0,2.21.11c.37,0,.73,0,1.09-.07l.79-.19.38-.13a1,1,0,0,1,0-.63l-.64-.41c-1.26-.72-2.57-1.32-3.86-2-.65-.32-1.31-.64-2-1s-1.33-.75-2-1.14A16.39,16.39,0,0,0,57.23,27.25Zm23.91,9.09c0-.44,0-.87,0-1.31a20.8,20.8,0,0,0-.4-2.06c-.09-.29-.18-.58-.28-.86a16.26,16.26,0,0,0-.72-1.52h0a30.92,30.92,0,0,0-1.77-2.72,32,32,0,0,0-2.29-2.79c-.92-.9-1.89-1.73-2.89-2.54h0a52,52,0,0,0-4.33-3.15,45.41,45.41,0,0,0-4.81-2.34c-1.26-.54-2.54-1.06-3.83-1.55s-2.51-.95-3.8-1.34q-.93-.25-1.86-.45c.43.64.85,1.3,1.26,2l.49.22h0l1.27.55h0c.42.16.86.28,1.27.45s1,.43,1.55.68c1,.49,2,.89,3,1.46a.85.85,0,0,1-.48,1.56,1.07,1.07,0,0,1-.39-.07c-.76-.33-1.51-.66-2.25-1s-1.48-.77-2.23-1.12l-.89-.4a19.88,19.88,0,0,1,1,2.09A10.8,10.8,0,0,1,58.27,22c0,.26.08.54.11.82l.44.16c.64.26,1.27.57,1.88.89A.84.84,0,0,1,61.08,25a.86.86,0,0,1-.76.47.8.8,0,0,1-.36-.09c-.45-.25-.89-.53-1.33-.79l0,0-.07,0,0,0h0l-.31-.15a4.37,4.37,0,0,1-.47,1.31l.27.08c.56.21,1.12.41,1.67.66,1.17.52,2.33,1.08,3.5,1.61.58.26,1.15.56,1.74.81s1.16.52,1.72.81l.2.11s0,0-.07-.05l.1.07h0l-.56-.43.11.09L66,29.11a1,1,0,0,1,1-1.74,12.48,12.48,0,0,1,1.78,1.18,6.07,6.07,0,0,1,1.48,1.51,2.91,2.91,0,0,1,.5,1.64,3.38,3.38,0,0,1-.22,1.18A3.93,3.93,0,0,1,69.1,34.7a5.5,5.5,0,0,1-1.13.51,9.22,9.22,0,0,1-1,.28,8.47,8.47,0,0,1-1.94.2h-.12a17.91,17.91,0,0,1-3.65-.34,24.4,24.4,0,0,1-3.33-1,23.66,23.66,0,0,1-3.21-1.44L53,32A20.14,20.14,0,0,1,51.22,31a13.54,13.54,0,0,1-1.64-1.39A19.4,19.4,0,0,1,48.05,28l-.41-.52a15.63,15.63,0,0,1-1.35-.95,18.76,18.76,0,0,1-1.95-1.83l.12.12c-.9-.94-1.79-1.88-2.63-2.88s-1.77-2.11-2.61-3.19A28.79,28.79,0,0,1,37,15.42c-.34-.57-.68-1.16-1-1.75-.14-.24-.28-.49-.4-.75s-.24-.6-.35-.9a.42.42,0,0,0,0-.06c-.09-.22-.18-.42-.25-.64a2.61,2.61,0,0,1-.06-.27l-.27.13-.46.31-.38.32a9.56,9.56,0,0,0-.74.83c-.23.29-.48.57-.71.85l-.23.34c-.29.51-.53,1-.77,1.57s-.47,1.24-.66,1.87c-.08.32-.16.63-.21.95a12.65,12.65,0,0,0-.13,1.5c0,.54.05,1.07.11,1.6s.16.84.26,1.25v0l0,0,0,.11s0-.05,0-.07a10.17,10.17,0,0,0,.36,1.06A16.37,16.37,0,0,0,32,25.42a25.08,25.08,0,0,0,1.54,2.4,24.07,24.07,0,0,0,1.59,1.89,26.18,26.18,0,0,0,2.13,1.95c.78.6,1.59,1.16,2.42,1.68l-.07,0,.08.05.07,0-.06,0c1.47.89,3,1.71,4.49,2.53s3.19,1.66,4.83,2.38l.73.31a1.25,1.25,0,0,1,.68.62,1.18,1.18,0,0,1,.05.92,1.23,1.23,0,0,1-1.14.79,1.12,1.12,0,0,1-.4-.07,46.27,46.27,0,0,1-4.33-1.91c-1.26-.62-2.49-1.32-3.73-2s-2.54-1.43-3.75-2.24A20.11,20.11,0,0,1,33.8,32a24,24,0,0,1-4.61-6.64,13.52,13.52,0,0,1-.76-2s0-.08,0-.12l-.1.07a16.32,16.32,0,0,0-1.22,1.13c-.18.2-.36.39-.52.6L26.5,25l0,.07,0,0,0,.1h0a14.11,14.11,0,0,0-.53,1.59s0-.05,0-.08l0,.11v0c-.14.65-.29,1.28-.49,1.91s-.44,1.38-.63,2.08c-.37,1.32-.72,2.65-1.06,4v0c-.3,1.2-.56,2.41-.86,3.61-.33,1.36-.6,2.73-.88,4.11s-.56,2.52-.74,3.8c-.09.64-.18,1.26-.3,1.89s-.25,1.32-.36,2c-.4,2.35-.7,4.73-1,7.11v0l0,.16v0c-.15,1.4-.25,2.81-.38,4.22-.07.76-.12,1.53-.18,2.3s-.16,1.44-.24,2.17l0-.19c-.07.65-.15,1.29-.22,1.94a35.2,35.2,0,0,0-.11,4.11v-.14c0,.77,0,1.54,0,2.3v0a33.37,33.37,0,0,0,.36,4.22c.1.58.21,1.18.34,1.76.15.75.34,1.49.52,2.23a1,1,0,0,1,0,.38l.49.4,1.15,1c.32.24.65.46,1,.68l.72.43h0c.42.25.86.47,1.29.68l1.22.59c.54.22,1.08.44,1.62.63s.9.28,1.36.42l-.05,0c.48.15,1,.29,1.44.41s1,.19,1.5.29c1,.22,2.1.45,3.15.63.68.1,1.35.17,2,.22a.86.86,0,0,1,0,1.72h0c-.56,0-1.11,0-1.67-.1s-1-.14-1.53-.22c-1-.16-1.93-.36-2.9-.52h.12l-.91-.13c-.32-.07-.65-.14-1-.23-.62-.16-1.23-.33-1.84-.52A15.2,15.2,0,0,1,25,88.15c-.58-.27-1.12-.61-1.67-.92l-.11-.07c.37.39.73.78,1.11,1.16.79.76,1.63,1.46,2.49,2.14.52.38,1,.73,1.59,1.06.32.17.64.34,1,.49l.79.29a1.09,1.09,0,0,1,.39.23h.06c.7.09,1.4.14,2.11.18h.08l2,.08c.66,0,1.31,0,2,0,1.33-.07,2.66-.05,4-.05s2.81-.11,4.22-.19,2.73-.11,4.1-.16,2.85-.2,4.28-.26,2.91-.06,4.35-.18c.89-.09,1.77-.19,2.65-.25l2.76-.19c.46-.05.92-.11,1.38-.2a24.21,24.21,0,0,0,2.64-.78h0L68.53,90a1.54,1.54,0,0,1,.3,0c.23-.24.46-.49.68-.74.36-.47.71-.93,1-1.43s.54-1,.77-1.44c.08-.23.16-.46.25-.69a.5.5,0,0,1,0-.13l-.59.32a26.07,26.07,0,0,1-3.1,1.25c-.54.19-1.08.37-1.64.53s-1.09.28-1.64.39-1.09.19-1.64.28l-.6.1-.25,0H61.9a.67.67,0,0,1-.66-.47.7.7,0,0,1,.45-.86l.15,0h-.09c.76-.18,1.53-.39,2.29-.6,1-.29,1.94-.63,2.89-1l1.16-.44h0a18.27,18.27,0,0,0,2.1-1l-.07,0a11.27,11.27,0,0,0,1-.65l.51-.45c0-.1,0-.2-.06-.3l-.09-.33c-.13-.31-.27-.62-.43-.92s-.44-.69-.68-1a18.9,18.9,0,0,0-1.31-1.53c-.72-.74-1.48-1.43-2.21-2.16s-1.53-1.52-2.25-2.32-1.39-1.6-2-2.45c-.34-.45-.69-.9-1-1.36s-.64-1-1-1.41c-.69-.9-1.46-1.74-2.06-2.7-.3-.48-.58-1-.87-1.47a8.45,8.45,0,0,1-3.35,2.55,27,27,0,0,1-3.67,1.47,20,20,0,0,1-2.15.57c-.66.14-1.33.23-2,.35-1.34.25-2.68.33-4,.45-.52,0-1,.06-1.55.06-.83,0-1.66,0-2.49-.07h-.29a3.24,3.24,0,0,1-1-.08A.7.7,0,0,1,37.49,69c.88-.09,1.77-.14,2.65-.22s1.6-.22,2.39-.36,1.71-.32,2.56-.52h0l1.24-.33c.42-.11.83-.21,1.25-.3A29.13,29.13,0,0,0,51,66.12c1-.4,1.93-.87,2.86-1.35.25-.14.48-.3.72-.46-1.07-.11-2.14-.23-3.2-.4a39.17,39.17,0,0,1-3.83-.86c-.93-.25-1.88-.48-2.8-.78s-1.63-.48-2.42-.78c-1-.38-2-.75-2.91-1.16-.48-.21-.95-.42-1.42-.65s-.79-.43-1.2-.63h0a4.34,4.34,0,0,0-.62-.28.71.71,0,1,1,.51-1.31l.39.14c.25.08.5.18.73.28.59.25,1.17.49,1.77.7l3.58,1.19h0l.09,0h0c.74.22,1.5.43,2.24.66h0c.93.28,1.87.53,2.8.78s1.82.46,2.73.63h0l.12,0h-.06c1,.14,1.9.26,2.86.34s2,.18,3,.23a25.06,25.06,0,0,0,3-.1c.82-.09,1.63-.21,2.43-.37l.13-.1a9.46,9.46,0,0,0,.91-.44c.26-.16.5-.35.75-.54s.26-.24.38-.37a14.57,14.57,0,0,0,1-1.23c.39-.49.78-1,1.15-1.48.78-1,1.71-1.94,2.46-3s1.54-2,2.29-3c.32-.45.62-.91.93-1.35s.58-.85.84-1.29l0,0,0,0,.06-.09,0,.07a14.86,14.86,0,0,0,.68-1.53,11.33,11.33,0,0,0,.36-1.17,11.31,11.31,0,0,1,.42-1.24s0-.05,0-.08a10.4,10.4,0,0,1-1.11.1h-.41c-.52,0-1,0-1.57-.09a5.71,5.71,0,0,1-1.67-.43.83.83,0,0,1-.48-1.21.86.86,0,0,1,.88-.3c.39,0,.79.06,1.19.08.56,0,1.12,0,1.68-.09s1.08-.2,1.62-.33,1-.2,1.54-.32c.26-.07.53-.15.79-.24l.53-.25a12.63,12.63,0,0,0,1.1-.69c.12-.09.25-.19.36-.29s.31-.34.46-.52c.26-.33.5-.67.73-1l.22-.43a9,9,0,0,0,.31-.87c.12-.45.21-.9.29-1.36ZM59.2,43.77c.51.1,1,.23,1.55.32s1,.15,1.54.21h-.06l.08,0,0,0a.56.56,0,0,0,.25.05.77.77,0,0,0,.71-.5.76.76,0,0,0-.45-1l-.09,0h0l-.08,0h0c-.32-.09-.65-.13-1-.19s-.86-.19-1.29-.31l.11,0c-.73-.21-1.46-.41-2.2-.59s-1.64-.44-2.47-.63A.91.91,0,0,0,55.51,43C56.74,43.27,58,43.51,59.2,43.77ZM57.54,88c-.43.16-.88.29-1.33.41a20.09,20.09,0,0,1-2,.31h.09c-.42,0-.84.06-1.26.13a.68.68,0,0,0-.55.77.68.68,0,0,0,.66.55h.09c.69-.06,1.39,0,2.09-.09A12.89,12.89,0,0,0,58,89.56a.83.83,0,0,0,.55-1A.84.84,0,0,0,57.54,88Zm5.17-45.1h0ZM31.45,78a23.64,23.64,0,0,1-1.87-1.58,17.7,17.7,0,0,1-1.22-1.38h0q-.9-1.16-1.71-2.37c-.28-.47-.52-1-.75-1.45s-.46-.84-.66-1.27a.75.75,0,0,0-1.46.33,9.48,9.48,0,0,0,.48,1.29c.21.55.4,1.09.66,1.62a18.42,18.42,0,0,0,1.13,1.91c.36.56.74,1.11,1.15,1.64a14.08,14.08,0,0,0,1.34,1.54c.51.49,1,1,1.58,1.45a23.47,23.47,0,0,0,3.55,2.35c1.21.67,2.46,1.29,3.74,1.84a30.56,30.56,0,0,0,4.11,1.39,26.39,26.39,0,0,0,4.23.84,42.92,42.92,0,0,0,4.39.27h.57a30.52,30.52,0,0,0,3.94-.23,19.56,19.56,0,0,0,4.28-.92A6.35,6.35,0,0,0,63,81.45a6.83,6.83,0,0,0,.25-3,6,6,0,0,0-1.08-2.6A10.9,10.9,0,0,0,61,74.61a1.27,1.27,0,0,0-.84-.39,1.21,1.21,0,0,0-1,2,12.18,12.18,0,0,1,.85.92l.25.36.16.29c.07.17.14.34.2.51s.09.37.13.55,0,.19,0,.28,0,.4,0,.6-.07.45-.12.68a5.05,5.05,0,0,1-.18.55.59.59,0,0,0,0-.08l0,.09,0,.05a.08.08,0,0,1,0,0,1.62,1.62,0,0,1-.1.18,1.75,1.75,0,0,1-.18.29l-.3.35-.42.36-.25.18c-.28.16-.55.3-.84.44s-.59.22-.9.31a22.57,22.57,0,0,1-2.31.49,34.74,34.74,0,0,1-3.82.34,45.25,45.25,0,0,1-5.07-.21,34,34,0,0,1-3.49-.62,44.43,44.43,0,0,1-4.51-1.41,49.69,49.69,0,0,1-4.6-2.2A26.56,26.56,0,0,1,31.45,78Zm21.7-33.22,0,0c-.14-.09-.27-.19-.42-.27s-.58-.33-.87-.47c-.59-.29-1.19-.58-1.8-.83a15.89,15.89,0,0,0-1.94-.68c-.66-.18-1.32-.34-2-.51s-1.23-.34-1.85-.48a17.22,17.22,0,0,0-2-.35A21.85,21.85,0,0,0,37.85,41a21.14,21.14,0,0,0-4.53.9,13.69,13.69,0,0,0-2.15.84,18.1,18.1,0,0,0-2,1.09,11.48,11.48,0,0,0-1.79,1.47,13.52,13.52,0,0,0-1.49,1.88,12.24,12.24,0,0,0-1.44,3.06,10,10,0,0,0-.41,2.31,1.16,1.16,0,0,0,1.11,1.19h0a1.17,1.17,0,0,0,1.13-1c.1-.44.19-.88.29-1.33l0,.16c.13-.44.27-.85.43-1.28s.28-.66.44-1c.27-.48.57-.92.88-1.37s.51-.64.78-.94.5-.48.76-.71.54-.39.82-.57c.68-.4,1.37-.76,2.08-1.09s1.26-.47,1.91-.68c.86-.24,1.73-.43,2.62-.59.56-.08,1.12-.14,1.69-.17a35.75,35.75,0,0,1,3.88.21c.82.11,1.62.3,2.42.47l2.46.51a24.69,24.69,0,0,1,2.52.82,15.61,15.61,0,0,1,1.84.78h0l.36.2a.77.77,0,1,0,.64-1.4Z"/>
    <!--    <text x="0" y="115" fill="#000000" font-size="5px" font-weight="bold"-->
    <!--          font-family="'Helvetica Neue', Helvetica, Arial-Unicode, Arial, Sans-serif">-->
    <!--        Created by Mike O.-->
    <!--    </text>-->
    <!--    <text x="0" y="120" fill="#000000" font-size="5px" font-weight="bold"-->
    <!--          font-family="'Helvetica Neue', Helvetica, Arial-Unicode, Arial, Sans-serif">-->
    <!--        from the Noun Project-->
    <!--    </text>-->
</svg>